<?xml version="1.0" encoding="utf-8"?>
<!-- Generator: Adobe Illustrator 22.0.1, SVG Export Plug-In . SVG Version: 6.00 Build 0)  -->
<svg version="1.1" id="Layer_1" xmlns="http://www.w3.org/2000/svg" xmlns:xlink="http://www.w3.org/1999/xlink" x="0px" y="0px"
	 viewBox="0 0 900 900" style="enable-background:new 0 0 900 900;" xml:space="preserve">
<style type="text/css">
	.st0{fill:#0D1021;}
	.st1{fill:#D0AE4E;}
</style>
<g>
	<rect class="st0" width="900" height="900"/>
	<g>
		<g>
			<g>
				<path class="st1" d="M612.5,394.7c-1.4-0.2-2.8-0.3-4.2-0.4c1.9-1.5,3.7-3,5.5-4.7c16.9-15.8,26.4-39.4,22.9-65.1
					c-4.5-32.9-31.1-59.2-64-63.5c-12-1.5-23.4-0.2-33.8,3.3l-0.2-0.3c0-30.9-56.1-117-79-150.9c-4.6-6.8-14.6-6.8-19.2,0
					c-22.9,33.9-79,120-79,150.9l-0.2,0.3c-10.4-3.5-21.9-4.8-33.8-3.3c-32.9,4.3-59.5,30.6-64,63.5c-3.5,25.7,6,49.2,22.9,65.1
					c1.8,1.7,3.6,3.2,5.5,4.7c-1.4,0.1-2.8,0.2-4.2,0.4c-36.3,4.7-63.8,37.2-60.7,75.4c2.8,34,30.6,61.4,64.6,63.9
					c15,1.1,29-2.6,40.8-9.6v0.1c0,0,63.7-33,94.9-20.6L378,553.7c-7.5,7.6-5.7,20.1,3.4,25.4c16.5,9.6,40.2,26,55,47.3
					c6.6,9.6,20.5,9.6,27.1,0c14.8-21.3,38.4-37.6,55-47.3c9.2-5.3,10.9-17.9,3.4-25.4l-49.2-49.8c31.2-12.4,94.9,20.6,94.9,20.6
					v-0.1c11.8,7,25.9,10.7,40.8,9.6c34-2.5,61.8-29.9,64.6-63.9C676.3,431.9,648.8,399.4,612.5,394.7z M541.7,296.8
					c53.5-28.9,127.8,90-47.3,115.4C494.5,412.1,545.7,348.6,541.7,296.8z M358.3,296.8c-3.9,51.8,47.3,115.4,47.3,115.4
					C230.5,386.8,304.7,267.9,358.3,296.8z M338.3,488.1c-102.1,52.9-107.8-72.6-20.5-67.5c14.1,2.2,26.8,12.3,37.7,13.5
					c69.2,7.3,69.2,37.1,69.2,37.1C387.5,464.5,338.3,488.1,338.3,488.1z M484.7,558.4c2.5,2.4,2.2,6.5-0.5,8.6L450,592.8L415.9,567
					c-2.8-2.1-3-6.2-0.5-8.6l34.7-33.7L484.7,558.4z M469.7,395.8c-8.7,11.6-13.8,21.1-19.7,36.6c-5.9-15.5-11-25-19.7-36.6
					c-84.1-111.4-18.7-159.5,19.7-238.1C488.4,236.3,553.8,284.4,469.7,395.8z M561.7,488.1c0,0-49.2-23.6-86.4-16.9
					c0,0,0-29.8,69.2-37.1c10.9-1.2,23.6-11.3,37.7-13.5C669.5,415.5,663.9,541,561.7,488.1z"/>
			</g>
			<g>
				<path class="st1" d="M136.9,772.8h55.3c1.4,0,2.4-0.3,3.1-0.9c0.7-0.6,1.3-1.7,1.7-3.3h2.1v23.3H197c-0.4-1.6-1-2.7-1.7-3.3
					c-0.7-0.6-1.7-0.9-3.1-0.9H113v-2.1c1.6-0.4,2.7-1,3.3-1.7c0.6-0.7,0.9-1.7,0.9-3.1v-76.2c0-1.4-0.3-2.4-0.9-3.1
					c-0.6-0.7-1.7-1.3-3.3-1.7v-2.1h28.1v2.1c-1.6,0.4-2.7,1-3.3,1.7c-0.6,0.7-0.9,1.8-0.9,3.1V772.8z"/>
				<path class="st1" d="M311.5,704.5V755c0,9.5-1.8,16.7-5.3,21.4c-6.3,8.5-19.4,12.8-39.2,12.8c-14.3,0-25.3-2.3-32.9-6.9
					c-4.4-2.7-7.5-6.3-9.2-10.9c-1.7-4.6-2.5-10-2.5-16.4v-50.5c0-1.4-0.3-2.4-0.9-3.1c-0.6-0.7-1.7-1.3-3.3-1.7v-2.1h28.1v2.1
					c-1.6,0.4-2.7,1-3.3,1.7c-0.6,0.7-0.9,1.8-0.9,3.1v44.9c0,5.2,0.3,9,0.9,11.5c0.6,2.5,1.6,4.6,3.2,6.2
					c4.2,4.5,11.4,6.7,21.6,6.7c10.2,0,17.5-2.2,21.7-6.7c1.5-1.7,2.6-3.7,3.2-6.2c0.6-2.5,0.9-6.3,0.9-11.5v-44.9
					c0-1.4-0.3-2.4-0.9-3.1c-0.6-0.7-1.7-1.3-3.3-1.7v-2.1h26.5v2.1c-1.6,0.4-2.7,1-3.3,1.7C311.8,702.1,311.5,703.2,311.5,704.5z"
					/>
				<path class="st1" d="M396.4,741.1l27.2,35c3,3.9,5.1,6.3,6.4,7.4c1.3,1.1,3.1,1.8,5.4,2.1v2.1h-35.7v-2.1c2.6-0.5,4-1.7,4-3.4
					c0-0.9-0.8-2.4-2.4-4.5l-16.8-21.7l-17,21c-1.8,2.3-2.7,4-2.7,4.9c0,2.2,1.5,3.4,4.4,3.7v2.1h-34.6v-2.1c2-0.2,3.6-0.8,4.7-1.7
					c1.1-0.9,3.4-3.5,6.8-7.8l27.5-34.2L348.3,709c-3.3-4.3-5.4-6.8-6.5-7.7c-1.1-0.9-2.8-1.4-5.2-1.6l-0.1-2.1h36.1v2.1
					c-2.6,0.7-4,2-4,4c0,1.1,0.9,2.8,2.8,5.3l14,18l14.5-18c2.1-2.7,3.2-4.6,3.2-5.7c0-1.9-1.5-3.1-4.6-3.6v-2.1h35.1v2.1
					c-2.1,0.2-3.6,0.7-4.5,1.4c-0.9,0.7-3.2,3.4-7,7.9L396.4,741.1z"/>
				<path class="st1" d="M547.7,704.5V755c0,9.5-1.8,16.7-5.3,21.4c-6.3,8.5-19.4,12.8-39.2,12.8c-14.3,0-25.3-2.3-32.9-6.9
					c-4.4-2.7-7.5-6.3-9.2-10.9c-1.7-4.6-2.5-10-2.5-16.4v-50.5c0-1.4-0.3-2.4-0.9-3.1c-0.6-0.7-1.7-1.3-3.3-1.7v-2.1h28.1v2.1
					c-1.6,0.4-2.7,1-3.3,1.7c-0.6,0.7-0.9,1.8-0.9,3.1v44.9c0,5.2,0.3,9,0.9,11.5c0.6,2.5,1.6,4.6,3.2,6.2
					c4.2,4.5,11.4,6.7,21.6,6.7c10.2,0,17.5-2.2,21.7-6.7c1.5-1.7,2.6-3.7,3.2-6.2c0.6-2.5,0.9-6.3,0.9-11.5v-44.9
					c0-1.4-0.3-2.4-0.9-3.1c-0.6-0.7-1.7-1.3-3.3-1.7v-2.1h26.5v2.1c-1.6,0.4-2.7,1-3.3,1.7C548,702.1,547.7,703.2,547.7,704.5z"/>
				<path class="st1" d="M602.3,750.9v29.9c0,1.3,0.3,2.3,1,3.1c0.6,0.7,1.7,1.3,3.3,1.7v2.1h-28.1v-2.1c1.6-0.4,2.7-1,3.3-1.7
					c0.6-0.7,0.9-1.7,0.9-3v-76.2c0-1.4-0.3-2.4-0.9-3.1c-0.6-0.7-1.7-1.3-3.3-1.7v-2.1h56.3c6.9,0,12.3,0.4,16.3,1.2
					c4,0.8,7.5,2.2,10.5,4.2c3.5,2.3,6.1,5.4,7.8,9.3c1.6,3.8,2.4,7.8,2.4,12.1c0,14.7-8.2,23.3-24.5,25.8l17.5,24.9
					c3.1,4.4,5.3,7.2,6.8,8.4c1.4,1.3,3.2,1.9,5.2,2.1v2.1h-32.5v-2.1c2.2-0.4,3.4-1.1,3.4-2.4c0-0.8-1-2.7-3.1-5.7l-18.2-26.5
					H602.3z M602.3,736.1h30.3c4.5,0,7.7-0.1,9.5-0.4c1.8-0.3,3.5-0.8,5.1-1.6c3.3-1.8,5-5.1,5-9.8c0-4.7-1.7-8-5-9.8
					c-1.6-0.9-3.3-1.4-5-1.7s-5-0.4-9.5-0.4h-30.3V736.1z"/>
				<path class="st1" d="M746.9,749.9v30.8c0,1.4,0.3,2.4,0.9,3.1c0.6,0.7,1.7,1.3,3.3,1.7v2.1h-28.2v-2.1c1.6-0.4,2.7-1,3.4-1.7
					c0.7-0.7,1-1.7,1-3.1v-30.8L698.2,709c-2.5-3.5-4.5-5.9-5.9-7.1c-1.4-1.2-3.1-1.9-5.1-2.2v-2.1h35.5v2.1
					c-2.9,0.5-4.4,1.8-4.4,4.1c0,0.8,0.9,2.5,2.7,5.2l16.2,24.1l16.7-24.1c1.8-2.6,2.7-4.3,2.7-5.3c0-1-0.4-1.9-1.2-2.6
					c-0.8-0.7-1.9-1.2-3.2-1.4v-2.1H787v2.1c-2,0.3-3.7,1-5.1,2.2c-1.4,1.2-3.4,3.6-5.9,7.1L746.9,749.9z"/>
			</g>
		</g>
	</g>
</g>
</svg>
